<svg>


<symbol id="logo-academy" xmlns="http://www.w3.org/2000/svg" viewBox="0 0 27 34"><path d="M13.643.016L13.5 0 0 1.407v24.606L13.5 34 27 26.013V1.407L13.643.016zm11.591 25L13.5 31.956 1.766 25.015V14.93l11.685 6.916.02 1.253-8.017-4.743-.011 1.225 8.046 4.809.02 1.286-8.045-4.758-.01 1.226L13.5 26.95l8.124-4.833V16.91l3.62-2.15-.01 10.256zm0-11.564l-3.22 1.88-1.482.875-7.065-4.187-.011 1.225 6.04 3.573-.053.031-.13.076-.86.492-4.986-2.948-.011 1.225 3.936 2.328-.933.61-.021.012-2.971-1.742-.011 1.225 1.947 1.135-1.988 1.186-11.618-6.872 11.638-6.958 11.8 6.834zm0-1.225L13.44 5.31 1.766 12.22V2.99L13.5 1.764 25.234 2.99v9.237z" fill="currentColor"/></symbol>

<symbol id="vk" xmlns="http://www.w3.org/2000/svg" viewBox="0 0 28 18">
<path d="M.085 2.49c0-.855.515-1.316 1.546-1.383l3.97.025a.52.52 0 01.532.377C6.542 2.767 7 3.852 7.505 4.766c.507.913 1.168 1.965 1.985 3.156.071.15.187.226.347.226.124 0 .222-.059.293-.176l.08-.277.026-4.35c0-.302-.075-.503-.226-.604-.151-.1-.43-.176-.84-.226-.319-.05-.479-.235-.479-.553 0-.067.009-.118.027-.151C9.09.72 10.156.176 11.915.176l1.492-.025c.675 0 1.234.16 1.678.478.444.318.667.821.667 1.509v5.708a.63.63 0 00.346.126c.266 0 .497-.15.693-.453 1.953-2.581 3.01-4.308 3.17-5.18 0-.017.018-.059.054-.126.124-.251.328-.47.612-.654.285-.184.533-.31.746-.377a.555.555 0 01.24-.05h4.13l.266.025c.355 0 .63.16.826.478.071.1.12.21.147.327.026.117.044.234.053.352.009.117.013.184.013.201v.176c-.124.687-.44 1.42-.945 2.2-.507.78-1.15 1.623-1.932 2.528s-1.27 1.5-1.466 1.785c-.16.202-.24.386-.24.554 0 .134.072.285.214.452l3.89 4.627c.213.269.32.562.32.88 0 .386-.16.705-.48.956-.32.252-.702.394-1.146.428l-.453.025h-4.05a.875.875 0 00-.106.012.862.862 0 01-.107.013c-.39 0-.755-.16-1.092-.478-.124-.134-.96-1.123-2.504-2.967a1.384 1.384 0 00-.373-.327c-.072.268-.165.654-.28 1.157-.116.503-.2.863-.253 1.081l-.08.428c-.178.586-.55.938-1.12 1.056l-.372.025h-2.611c-1.475 0-2.944-.637-4.41-1.911-1.465-1.274-2.784-2.922-3.956-4.942C2.323 8.253 1.23 5.902.219 3.22a1.916 1.916 0 01-.134-.73zm16.013 6.513c-.373 0-.71-.096-1.012-.289-.303-.193-.454-.457-.454-.792V2.138c0-.335-.088-.574-.266-.717-.178-.142-.488-.214-.932-.214l-1.52.05c-.763 0-1.34.126-1.73.378.78.352 1.171.922 1.171 1.71V7.77a1.5 1.5 0 01-.532 1.044 1.59 1.59 0 01-1.066.415c-.533 0-.942-.244-1.226-.73-1.385-1.978-2.415-3.856-3.09-5.633l-.24-.654-3.544-.025c-.23 0-.36.013-.386.038-.027.025-.04.096-.04.214 0 .15.018.31.053.477l.56 1.409c1.492 3.638 3.113 6.505 4.862 8.6 1.75 2.096 3.468 3.144 5.156 3.144h2.664c.107 0 .187-.03.24-.088.053-.059.097-.172.133-.34l.053-.251.507-2.213c.142-.302.266-.503.373-.604a.976.976 0 01.692-.276c.427 0 .862.243 1.306.729l2.264 2.716c.142.218.293.327.453.327h4.396c.533 0 .8-.126.8-.377a.465.465 0 00-.08-.252L21.8 10.89c-.302-.352-.453-.729-.453-1.131 0-.403.142-.788.426-1.157.23-.335.68-.893 1.345-1.673a37.63 37.63 0 001.745-2.187c.498-.68.826-1.295.986-1.849l.08-.327a.37.37 0 01-.026-.163.574.574 0 00-.027-.189h-4.183c-.266.1-.48.252-.64.453l-.16.478C20.45 4.3 19.287 6.086 17.404 8.5a1.891 1.891 0 01-1.305.503z" fill="currentColor"/></symbol>

<symbol  id="facebook" xmlns="http://www.w3.org/2000/svg" viewBox="0 0 22 22">
<path d="M16.5 1.833h-2.75a4.63 4.63 0 00-3.24 1.317 4.45 4.45 0 00-1.343 3.177v2.697h-2.75v3.595h2.75v7.191h3.666v-7.19h2.75l.917-3.596h-3.667V6.327a.89.89 0 01.269-.635.926.926 0 01.648-.263h2.75V1.833z" stroke="currentColor" stroke-width="1.1" stroke-linecap="round" stroke-linejoin="round"/></symbol>

<symbol id="instagram" xmlns="http://www.w3.org/2000/svg" viewBox="0 0 20 20">
<path d="M9.98.078c1.667 0 3.028.02 4.082.059.899.039 1.7.195 2.403.468.677.26 1.263.638 1.758 1.133.494.495.872 1.081 1.133 1.758.273.703.43 1.504.468 2.402.04 1.055.059 2.416.059 4.082 0 1.667-.02 3.028-.059 4.082-.039.899-.195 1.7-.469 2.403a4.985 4.985 0 01-1.132 1.758 4.985 4.985 0 01-1.758 1.133c-.703.273-1.504.43-2.402.468-1.055.04-2.416.059-4.083.059-1.666 0-3.027-.02-4.082-.059-.898-.039-1.699-.195-2.402-.469a4.985 4.985 0 01-1.758-1.132 4.984 4.984 0 01-1.133-1.758c-.273-.703-.43-1.504-.468-2.402-.04-1.055-.059-2.416-.059-4.083 0-1.666.02-3.027.059-4.082C.176 5 .332 4.2.605 3.496a4.984 4.984 0 011.133-1.758A4.984 4.984 0 013.496.605C4.2.332 5 .175 5.898.137 6.953.097 8.314.078 9.98.078zm0 1.29c-1.731 0-3.144.019-4.238.058a6.27 6.27 0 00-1.953.37A3.566 3.566 0 001.797 3.79a6.27 6.27 0 00-.371 1.953 123.51 123.51 0 00-.059 4.238c0 1.732.02 3.145.059 4.239a6.27 6.27 0 00.37 1.953 3.566 3.566 0 001.993 1.992c.599.221 1.25.345 1.953.371a123.7 123.7 0 004.238.059c1.732 0 3.145-.02 4.239-.059a6.274 6.274 0 001.953-.37 3.567 3.567 0 001.992-1.993c.221-.6.345-1.25.371-1.953.04-1.094.059-2.507.059-4.239 0-1.731-.02-3.144-.059-4.238a6.273 6.273 0 00-.37-1.953 3.566 3.566 0 00-1.993-1.992 6.27 6.27 0 00-1.953-.371c-1.094-.04-2.507-.059-4.239-.059zm0 12.577c1.094 0 2.028-.387 2.803-1.162.775-.774 1.162-1.709 1.162-2.803 0-1.093-.387-2.028-1.162-2.802-.774-.775-1.709-1.162-2.803-1.162-1.093 0-2.028.387-2.802 1.162-.775.774-1.162 1.709-1.162 2.802 0 1.094.387 2.028 1.162 2.803.774.775 1.709 1.162 2.802 1.162zm0-9.043c1.407 0 2.605.495 3.594 1.485.99.99 1.485 2.187 1.485 3.593 0 1.407-.495 2.605-1.485 3.594-.99.99-2.187 1.485-3.594 1.485-1.406 0-2.604-.495-3.593-1.485-.99-.99-1.485-2.187-1.485-3.594 0-1.406.495-2.604 1.485-3.593.99-.99 2.187-1.485 3.593-1.485zm6.485-.195c0 .326-.117.602-.352.83-.234.228-.52.342-.86.342a1.13 1.13 0 01-.83-.342 1.13 1.13 0 01-.341-.83c0-.339.114-.625.342-.86.228-.234.504-.35.83-.35.325 0 .609.12.85.36.24.241.36.525.36.85z" fill="currentColor"/></symbol>

<symbol id="mail"  viewBox="0 0 19 14"  xmlns="http://www.w3.org/2000/svg">
<g>
<line x1="0.65" y1="5.84766" x2="0.65" y2="13.8477" stroke="currentColor" stroke-width="1.3"/>
<line x1="17.65" y1="5.84766" x2="17.65" y2="13.8477" stroke="currentColor" stroke-width="1.3"/>
<line y1="13.1977" x2="18" y2="13.1977" stroke="currentColor"  stroke-width="1.3"/>
<line y1="1.19766" x2="18" y2="1.19766" stroke="currentColor" stroke-width="1.3"/>
<path d="M17.35 3.02975L9.00002 9.5242L0.65 3.02975V1.49766H3.5L9.00002 1.49766H14H17.35V3.02975Z" stroke="currentColor" stroke-width="1.3"/>
</g>
</symbol>
<symbol  id="phone-icon" width="20" height="21" viewBox="0 0 20 21"  xmlns="http://www.w3.org/2000/svg">
<g clip-path="url(#clip0)">
<path d="M17.9 9.75275H9.39999V10.9569H17.9L15.8 13.0641L16.7 13.9672L19.8 10.8565C19.8974 10.7263 19.95 10.5678 19.95 10.405C19.95 10.2421 19.8974 10.0837 19.8 9.95344L16.7 6.84277L15.8 7.74587L17.9 9.75275Z" fill="currentColor"/>
<path d="M8.10001 19.7872V13.5659C8.08846 13.41 8.02154 13.2635 7.91142 13.153C7.80131 13.0425 7.65531 12.9754 7.50001 12.9638H3.10001C3.10516 13.2815 3.23325 13.5848 3.45718 13.8095C3.68112 14.0342 3.98336 14.1627 4.30001 14.1679H6.80001V19.1851H3.10001C2.86326 19.2 2.62591 19.1676 2.40176 19.0896C2.17762 19.0117 1.97115 18.8898 1.79436 18.7311C1.61757 18.5723 1.47399 18.3799 1.37196 18.165C1.26992 17.9501 1.21148 17.717 1.20001 17.4793V3.43111C1.19181 2.96681 1.36516 2.51774 1.68292 2.18013C2.00069 1.84252 2.43758 1.64322 2.90001 1.62492H6.80001V6.64212H4.40001C4.08336 6.64729 3.78112 6.77581 3.55718 7.00052C3.33325 7.22523 3.20516 7.52851 3.20001 7.84625H7.60001C7.75531 7.83466 7.90131 7.76751 8.01142 7.65701C8.12154 7.54651 8.18846 7.40002 8.20001 7.24418V0.922517C8.15232 0.76584 8.06117 0.626022 7.93721 0.519407C7.81325 0.412792 7.66161 0.343785 7.50001 0.320453H3.10001C2.70599 0.307054 2.31321 0.371716 1.94411 0.510744C1.57501 0.649771 1.23684 0.860436 0.948933 1.13069C0.661026 1.40095 0.42903 1.7255 0.266207 2.08579C0.103385 2.44608 0.01293 2.83504 1.46306e-05 3.23043V17.1782C-0.0289644 17.5773 0.0246504 17.978 0.157487 18.3552C0.290324 18.7324 0.499509 19.078 0.771886 19.3701C1.04426 19.6623 1.37394 19.8947 1.74019 20.0529C2.10643 20.211 2.50132 20.2913 2.90001 20.2889H7.50001C7.5735 20.304 7.64943 20.3022 7.72216 20.2839C7.7949 20.2655 7.86259 20.2309 7.92021 20.1828C7.97783 20.1346 8.02391 20.074 8.05504 20.0055C8.08616 19.9371 8.10153 19.8624 8.10001 19.7872Z" fill="currentColor"/>
</g>
<defs>
<clipPath id="clip0">
<rect width="20" height="20.0688" fill="white" transform="translate(0 0.320435)"/>
</clipPath>
</defs>
</symbol>

</svg>
